<svg xmlns="http://www.w3.org/2000/svg" xmlns:xlink="http://www.w3.org/1999/xlink" width="250" zoomAndPan="magnify" viewBox="0 0 187.5 74.999997" height="100" preserveAspectRatio="xMidYMid meet" version="1.0"><defs><g/><clipPath id="c9f0bc989f"><path d="M 153.898438 0.101562 L 187 0.101562 L 187 74.898438 L 153.898438 74.898438 Z M 153.898438 0.101562 " clip-rule="nonzero"/></clipPath><clipPath id="8189568517"><path d="M 157.800781 26.351562 L 186.449219 26.351562 L 186.449219 48.851562 L 157.800781 48.851562 Z M 157.800781 26.351562 " clip-rule="nonzero"/></clipPath><clipPath id="83dc32d7db"><path d="M 186.449219 37.601562 L 175.199219 26.351562 L 175.199219 31.976562 L 157.800781 31.976562 L 157.800781 43.226562 L 175.199219 43.226562 L 175.199219 48.851562 Z M 186.449219 37.601562 " clip-rule="nonzero"/></clipPath></defs><g clip-path="url(#c9f0bc989f)"><path fill="#ffffff" d="M 153.898438 0.101562 L 187.5 0.101562 L 187.5 75.101562 L 153.898438 75.101562 Z M 153.898438 0.101562 " fill-opacity="1" fill-rule="nonzero"/></g><g clip-path="url(#8189568517)"><g clip-path="url(#83dc32d7db)"><path fill="#a6a6a6" d="M 157.800781 26.351562 L 186.449219 26.351562 L 186.449219 48.851562 L 157.800781 48.851562 Z M 157.800781 26.351562 " fill-opacity="1" fill-rule="nonzero"/></g></g><g fill="#000000" fill-opacity="1"><g transform="translate(8.917968, 26.949733)"><g><path d="M 9.59375 0 L 7.515625 0 L 6.765625 -2.296875 L 2.9375 -2.296875 L 2.1875 0 L 0.15625 0 L 3.609375 -10 L 6.140625 -10 Z M 4.75 -7.90625 L 3.46875 -3.96875 L 6.21875 -3.96875 L 4.921875 -7.90625 Z M 4.75 -7.90625 "/></g></g></g><g fill="#000000" fill-opacity="1"><g transform="translate(18.653742, 26.949733)"><g><path d="M 3.90625 3.203125 C 2.664062 3.203125 1.75 3.019531 1.15625 2.65625 C 0.5625 2.289062 0.265625 1.78125 0.265625 1.125 C 0.265625 0.726562 0.390625 0.40625 0.640625 0.15625 C 0.898438 -0.09375 1.265625 -0.265625 1.734375 -0.359375 L 1.734375 -0.5 C 1.484375 -0.65625 1.300781 -0.828125 1.1875 -1.015625 C 1.070312 -1.203125 1.015625 -1.421875 1.015625 -1.671875 C 1.015625 -2.273438 1.410156 -2.6875 2.203125 -2.90625 L 2.203125 -3.046875 C 1.796875 -3.273438 1.488281 -3.5625 1.28125 -3.90625 C 1.082031 -4.25 0.984375 -4.664062 0.984375 -5.15625 C 0.984375 -5.65625 1.097656 -6.09375 1.328125 -6.46875 C 1.554688 -6.851562 1.890625 -7.148438 2.328125 -7.359375 C 2.773438 -7.578125 3.3125 -7.6875 3.9375 -7.6875 C 4.5625 -7.6875 5.0625 -7.578125 5.4375 -7.359375 C 5.664062 -7.691406 5.800781 -8.082031 5.84375 -8.53125 L 5.984375 -8.609375 L 7.34375 -8.28125 C 7.300781 -7.914062 7.195312 -7.609375 7.03125 -7.359375 C 6.863281 -7.117188 6.597656 -6.90625 6.234375 -6.71875 L 6.234375 -6.5625 C 6.660156 -6.195312 6.875 -5.675781 6.875 -5 C 6.875 -4.539062 6.757812 -4.125 6.53125 -3.75 C 6.300781 -3.382812 5.960938 -3.09375 5.515625 -2.875 C 5.066406 -2.664062 4.539062 -2.5625 3.9375 -2.5625 L 3.640625 -2.5625 C 3.460938 -2.570312 3.335938 -2.578125 3.265625 -2.578125 C 3.085938 -2.578125 2.945312 -2.53125 2.84375 -2.4375 C 2.75 -2.34375 2.703125 -2.222656 2.703125 -2.078125 C 2.703125 -1.921875 2.765625 -1.796875 2.890625 -1.703125 C 3.023438 -1.617188 3.210938 -1.570312 3.453125 -1.5625 L 5.140625 -1.5 C 6.816406 -1.445312 7.65625 -0.726562 7.65625 0.65625 C 7.65625 1.144531 7.53125 1.578125 7.28125 1.953125 C 7.03125 2.335938 6.625 2.640625 6.0625 2.859375 C 5.507812 3.085938 4.789062 3.203125 3.90625 3.203125 Z M 3.9375 -3.890625 C 4.300781 -3.890625 4.582031 -3.992188 4.78125 -4.203125 C 4.988281 -4.421875 5.09375 -4.726562 5.09375 -5.125 C 5.09375 -5.519531 4.988281 -5.820312 4.78125 -6.03125 C 4.582031 -6.238281 4.300781 -6.34375 3.9375 -6.34375 C 3.5625 -6.34375 3.273438 -6.238281 3.078125 -6.03125 C 2.878906 -5.820312 2.78125 -5.519531 2.78125 -5.125 C 2.78125 -4.71875 2.878906 -4.410156 3.078125 -4.203125 C 3.273438 -3.992188 3.5625 -3.890625 3.9375 -3.890625 Z M 3.90625 1.828125 C 4.550781 1.828125 5.019531 1.734375 5.3125 1.546875 C 5.613281 1.367188 5.765625 1.132812 5.765625 0.84375 C 5.765625 0.601562 5.6875 0.425781 5.53125 0.3125 C 5.382812 0.207031 5.144531 0.148438 4.8125 0.140625 L 3.328125 0.0625 C 3.273438 0.0625 3.226562 0.0625 3.1875 0.0625 C 3.144531 0.0625 3.101562 0.0625 3.0625 0.0625 C 2.738281 0.0625 2.492188 0.128906 2.328125 0.265625 C 2.160156 0.398438 2.078125 0.585938 2.078125 0.828125 C 2.078125 1.148438 2.226562 1.394531 2.53125 1.5625 C 2.84375 1.738281 3.300781 1.828125 3.90625 1.828125 Z M 3.90625 1.828125 "/></g></g></g><g fill="#000000" fill-opacity="1"><g transform="translate(26.490186, 26.949733)"><g><path d="M 1.09375 0 L 1.09375 -7.546875 L 2.90625 -7.546875 L 2.90625 -6.4375 L 3.046875 -6.40625 C 3.515625 -7.257812 4.273438 -7.6875 5.328125 -7.6875 C 6.203125 -7.6875 6.84375 -7.445312 7.25 -6.96875 C 7.65625 -6.5 7.859375 -5.8125 7.859375 -4.90625 L 7.859375 0 L 5.96875 0 L 5.96875 -4.671875 C 5.96875 -5.171875 5.863281 -5.53125 5.65625 -5.75 C 5.457031 -5.96875 5.140625 -6.078125 4.703125 -6.078125 C 4.160156 -6.078125 3.738281 -5.898438 3.4375 -5.546875 C 3.132812 -5.203125 2.984375 -4.65625 2.984375 -3.90625 L 2.984375 0 Z M 1.09375 0 "/></g></g></g><g fill="#000000" fill-opacity="1"><g transform="translate(35.317288, 26.949733)"><g><path d="M 4.375 0.140625 C 3.644531 0.140625 3 -0.0078125 2.4375 -0.3125 C 1.875 -0.613281 1.4375 -1.054688 1.125 -1.640625 C 0.820312 -2.222656 0.671875 -2.929688 0.671875 -3.765625 C 0.671875 -4.597656 0.820312 -5.304688 1.125 -5.890625 C 1.4375 -6.484375 1.875 -6.929688 2.4375 -7.234375 C 3 -7.535156 3.644531 -7.6875 4.375 -7.6875 C 5.113281 -7.6875 5.765625 -7.535156 6.328125 -7.234375 C 6.890625 -6.929688 7.320312 -6.484375 7.625 -5.890625 C 7.9375 -5.304688 8.09375 -4.597656 8.09375 -3.765625 C 8.09375 -2.929688 7.9375 -2.222656 7.625 -1.640625 C 7.320312 -1.054688 6.890625 -0.613281 6.328125 -0.3125 C 5.765625 -0.0078125 5.113281 0.140625 4.375 0.140625 Z M 4.375 -1.46875 C 5.550781 -1.46875 6.140625 -2.234375 6.140625 -3.765625 C 6.140625 -4.566406 5.988281 -5.148438 5.6875 -5.515625 C 5.382812 -5.890625 4.945312 -6.078125 4.375 -6.078125 C 3.207031 -6.078125 2.625 -5.304688 2.625 -3.765625 C 2.625 -2.234375 3.207031 -1.46875 4.375 -1.46875 Z M 4.375 -1.46875 "/></g></g></g><g fill="#000000" fill-opacity="1"><g transform="translate(44.076069, 26.949733)"><g><path d="M 3.53125 0.140625 C 3.007812 0.140625 2.535156 0.0820312 2.109375 -0.03125 C 1.679688 -0.15625 1.316406 -0.320312 1.015625 -0.53125 C 0.710938 -0.75 0.488281 -0.992188 0.34375 -1.265625 L 1.390625 -2.40625 L 1.53125 -2.40625 C 1.789062 -2.0625 2.085938 -1.804688 2.421875 -1.640625 C 2.765625 -1.472656 3.140625 -1.390625 3.546875 -1.390625 C 3.910156 -1.390625 4.1875 -1.453125 4.375 -1.578125 C 4.5625 -1.710938 4.65625 -1.90625 4.65625 -2.15625 C 4.65625 -2.34375 4.585938 -2.5 4.453125 -2.625 C 4.316406 -2.757812 4.097656 -2.863281 3.796875 -2.9375 L 2.796875 -3.171875 C 2.054688 -3.359375 1.515625 -3.632812 1.171875 -4 C 0.828125 -4.363281 0.65625 -4.828125 0.65625 -5.390625 C 0.65625 -5.859375 0.773438 -6.265625 1.015625 -6.609375 C 1.253906 -6.960938 1.585938 -7.226562 2.015625 -7.40625 C 2.453125 -7.59375 2.960938 -7.6875 3.546875 -7.6875 C 4.222656 -7.6875 4.785156 -7.585938 5.234375 -7.390625 C 5.679688 -7.191406 6.03125 -6.929688 6.28125 -6.609375 L 5.265625 -5.515625 L 5.125 -5.515625 C 4.914062 -5.742188 4.679688 -5.910156 4.421875 -6.015625 C 4.160156 -6.128906 3.867188 -6.1875 3.546875 -6.1875 C 2.796875 -6.1875 2.421875 -5.957031 2.421875 -5.5 C 2.421875 -5.300781 2.488281 -5.140625 2.625 -5.015625 C 2.769531 -4.890625 3.015625 -4.789062 3.359375 -4.71875 L 4.296875 -4.515625 C 5.054688 -4.347656 5.613281 -4.082031 5.96875 -3.71875 C 6.320312 -3.351562 6.5 -2.867188 6.5 -2.265625 C 6.5 -1.785156 6.378906 -1.363281 6.140625 -1 C 5.910156 -0.632812 5.570312 -0.351562 5.125 -0.15625 C 4.675781 0.0390625 4.144531 0.140625 3.53125 0.140625 Z M 3.53125 0.140625 "/></g></g></g><g fill="#000000" fill-opacity="1"><g transform="translate(51.024337, 26.949733)"><g><path d="M 5.203125 -1.796875 L 5.6875 -0.390625 C 5.488281 -0.222656 5.234375 -0.09375 4.921875 0 C 4.609375 0.09375 4.257812 0.140625 3.875 0.140625 C 3.050781 0.140625 2.425781 -0.078125 2 -0.515625 C 1.582031 -0.960938 1.375 -1.613281 1.375 -2.46875 L 1.375 -6.046875 L 0.21875 -6.046875 L 0.21875 -7.546875 L 1.375 -7.546875 L 1.375 -9.015625 L 3.265625 -9.328125 L 3.265625 -7.546875 L 5.40625 -7.546875 L 5.40625 -6.046875 L 3.265625 -6.046875 L 3.265625 -2.59375 C 3.265625 -2.21875 3.34375 -1.945312 3.5 -1.78125 C 3.65625 -1.613281 3.878906 -1.53125 4.171875 -1.53125 C 4.515625 -1.53125 4.8125 -1.617188 5.0625 -1.796875 Z M 5.203125 -1.796875 "/></g></g></g><g fill="#000000" fill-opacity="1"><g transform="translate(56.879466, 26.949733)"><g><path d="M 2.03125 -8.4375 C 1.6875 -8.4375 1.40625 -8.539062 1.1875 -8.75 C 0.976562 -8.957031 0.875 -9.226562 0.875 -9.5625 C 0.875 -9.882812 0.976562 -10.148438 1.1875 -10.359375 C 1.40625 -10.566406 1.6875 -10.671875 2.03125 -10.671875 C 2.257812 -10.671875 2.460938 -10.617188 2.640625 -10.515625 C 2.816406 -10.421875 2.953125 -10.289062 3.046875 -10.125 C 3.148438 -9.957031 3.203125 -9.769531 3.203125 -9.5625 C 3.203125 -9.34375 3.148438 -9.148438 3.046875 -8.984375 C 2.953125 -8.816406 2.816406 -8.679688 2.640625 -8.578125 C 2.460938 -8.484375 2.257812 -8.4375 2.03125 -8.4375 Z M 1.09375 0 L 1.09375 -7.546875 L 2.984375 -7.546875 L 2.984375 0 Z M 1.09375 0 "/></g></g></g><g fill="#000000" fill-opacity="1"><g transform="translate(60.937747, 26.949733)"><g><path d="M 4.390625 0.140625 C 3.660156 0.140625 3.015625 -0.0078125 2.453125 -0.3125 C 1.898438 -0.613281 1.460938 -1.054688 1.140625 -1.640625 C 0.828125 -2.234375 0.671875 -2.941406 0.671875 -3.765625 C 0.671875 -4.597656 0.828125 -5.304688 1.140625 -5.890625 C 1.460938 -6.484375 1.898438 -6.929688 2.453125 -7.234375 C 3.003906 -7.535156 3.640625 -7.6875 4.359375 -7.6875 C 5.953125 -7.6875 6.972656 -7.109375 7.421875 -5.953125 L 6.125 -5.03125 L 5.96875 -5.03125 C 5.820312 -5.382812 5.625 -5.644531 5.375 -5.8125 C 5.125 -5.988281 4.785156 -6.078125 4.359375 -6.078125 C 3.816406 -6.078125 3.390625 -5.882812 3.078125 -5.5 C 2.773438 -5.125 2.625 -4.546875 2.625 -3.765625 C 2.625 -2.992188 2.78125 -2.414062 3.09375 -2.03125 C 3.40625 -1.65625 3.835938 -1.46875 4.390625 -1.46875 C 4.804688 -1.46875 5.15625 -1.578125 5.4375 -1.796875 C 5.71875 -2.015625 5.921875 -2.332031 6.046875 -2.75 L 6.1875 -2.765625 L 7.546875 -2.03125 C 7.347656 -1.382812 6.988281 -0.859375 6.46875 -0.453125 C 5.957031 -0.0546875 5.265625 0.140625 4.390625 0.140625 Z M 4.390625 0.140625 "/></g></g></g><g fill="#000000" fill-opacity="1"><g transform="translate(68.70587, 26.949733)"><g><path d="M 4.890625 -10 C 6.515625 -10 7.753906 -9.578125 8.609375 -8.734375 C 9.460938 -7.898438 9.890625 -6.65625 9.890625 -5 C 9.890625 -3.34375 9.460938 -2.09375 8.609375 -1.25 C 7.753906 -0.414062 6.515625 0 4.890625 0 L 1.296875 0 L 1.296875 -10 Z M 4.78125 -1.65625 C 5.8125 -1.65625 6.582031 -1.914062 7.09375 -2.4375 C 7.601562 -2.96875 7.859375 -3.820312 7.859375 -5 C 7.859375 -6.164062 7.601562 -7.007812 7.09375 -7.53125 C 6.582031 -8.0625 5.8125 -8.328125 4.78125 -8.328125 L 3.28125 -8.328125 L 3.28125 -1.65625 Z M 4.78125 -1.65625 "/></g></g></g><g fill="#000000" fill-opacity="1"><g transform="translate(79.384477, 26.949733)"><g/></g></g><g fill="#000000" fill-opacity="1"><g transform="translate(82.684392, 26.949733)"><g><path d="M 4.890625 -10 C 6.515625 -10 7.753906 -9.578125 8.609375 -8.734375 C 9.460938 -7.898438 9.890625 -6.65625 9.890625 -5 C 9.890625 -3.34375 9.460938 -2.09375 8.609375 -1.25 C 7.753906 -0.414062 6.515625 0 4.890625 0 L 1.296875 0 L 1.296875 -10 Z M 4.78125 -1.65625 C 5.8125 -1.65625 6.582031 -1.914062 7.09375 -2.4375 C 7.601562 -2.96875 7.859375 -3.820312 7.859375 -5 C 7.859375 -6.164062 7.601562 -7.007812 7.09375 -7.53125 C 6.582031 -8.0625 5.8125 -8.328125 4.78125 -8.328125 L 3.28125 -8.328125 L 3.28125 -1.65625 Z M 4.78125 -1.65625 "/></g></g></g><g fill="#000000" fill-opacity="1"><g transform="translate(93.362999, 26.949733)"><g><path d="M 7.453125 -3.34375 L 2.609375 -3.34375 C 2.660156 -2.6875 2.84375 -2.207031 3.15625 -1.90625 C 3.476562 -1.613281 3.914062 -1.46875 4.46875 -1.46875 C 4.90625 -1.46875 5.253906 -1.546875 5.515625 -1.703125 C 5.785156 -1.867188 6.003906 -2.113281 6.171875 -2.4375 L 6.3125 -2.4375 L 7.578125 -1.640625 C 7.328125 -1.109375 6.953125 -0.675781 6.453125 -0.34375 C 5.960938 -0.0195312 5.300781 0.140625 4.46875 0.140625 C 3.6875 0.140625 3.007812 -0.00390625 2.4375 -0.296875 C 1.875 -0.597656 1.4375 -1.039062 1.125 -1.625 C 0.820312 -2.207031 0.671875 -2.921875 0.671875 -3.765625 C 0.671875 -4.617188 0.832031 -5.335938 1.15625 -5.921875 C 1.476562 -6.515625 1.914062 -6.957031 2.46875 -7.25 C 3.019531 -7.539062 3.640625 -7.6875 4.328125 -7.6875 C 5.398438 -7.6875 6.21875 -7.398438 6.78125 -6.828125 C 7.351562 -6.265625 7.640625 -5.4375 7.640625 -4.34375 C 7.640625 -3.945312 7.625 -3.640625 7.59375 -3.421875 Z M 5.828125 -4.5625 C 5.804688 -5.132812 5.671875 -5.550781 5.421875 -5.8125 C 5.171875 -6.082031 4.804688 -6.21875 4.328125 -6.21875 C 3.378906 -6.21875 2.816406 -5.664062 2.640625 -4.5625 Z M 5.828125 -4.5625 "/></g></g></g><g fill="#000000" fill-opacity="1"><g transform="translate(101.554713, 26.949733)"><g><path d="M 1.09375 3.0625 L 1.09375 -7.546875 L 2.984375 -7.546875 L 2.984375 -6.5625 L 3.125 -6.53125 C 3.34375 -6.914062 3.640625 -7.203125 4.015625 -7.390625 C 4.390625 -7.585938 4.828125 -7.6875 5.328125 -7.6875 C 5.929688 -7.6875 6.460938 -7.539062 6.921875 -7.25 C 7.378906 -6.96875 7.734375 -6.53125 7.984375 -5.9375 C 8.234375 -5.351562 8.359375 -4.628906 8.359375 -3.765625 C 8.359375 -2.898438 8.222656 -2.175781 7.953125 -1.59375 C 7.691406 -1.007812 7.320312 -0.570312 6.84375 -0.28125 C 6.375 0 5.828125 0.140625 5.203125 0.140625 C 4.734375 0.140625 4.328125 0.0625 3.984375 -0.09375 C 3.648438 -0.25 3.363281 -0.492188 3.125 -0.828125 L 2.984375 -0.796875 L 2.984375 3.0625 Z M 4.6875 -1.46875 C 5.25 -1.46875 5.675781 -1.648438 5.96875 -2.015625 C 6.257812 -2.390625 6.40625 -2.972656 6.40625 -3.765625 C 6.40625 -4.566406 6.257812 -5.148438 5.96875 -5.515625 C 5.675781 -5.890625 5.25 -6.078125 4.6875 -6.078125 C 4.15625 -6.078125 3.734375 -5.882812 3.421875 -5.5 C 3.109375 -5.113281 2.953125 -4.535156 2.953125 -3.765625 C 2.953125 -2.992188 3.109375 -2.414062 3.421875 -2.03125 C 3.734375 -1.65625 4.15625 -1.46875 4.6875 -1.46875 Z M 4.6875 -1.46875 "/></g></g></g><g fill="#000000" fill-opacity="1"><g transform="translate(110.579947, 26.949733)"><g><path d="M 3.125 0.140625 C 2.445312 0.140625 1.929688 -0.0390625 1.578125 -0.40625 C 1.222656 -0.769531 1.046875 -1.328125 1.046875 -2.078125 L 1.046875 -10.5625 L 2.9375 -10.5625 L 2.9375 -2.15625 C 2.9375 -1.695312 3.125 -1.46875 3.5 -1.46875 C 3.613281 -1.46875 3.734375 -1.484375 3.859375 -1.515625 L 3.953125 -1.484375 L 4.125 -0.03125 C 4.019531 0.0195312 3.878906 0.0625 3.703125 0.09375 C 3.535156 0.125 3.34375 0.140625 3.125 0.140625 Z M 3.125 0.140625 "/></g></g></g><g fill="#000000" fill-opacity="1"><g transform="translate(114.911512, 26.949733)"><g><path d="M 4.375 0.140625 C 3.644531 0.140625 3 -0.0078125 2.4375 -0.3125 C 1.875 -0.613281 1.4375 -1.054688 1.125 -1.640625 C 0.820312 -2.222656 0.671875 -2.929688 0.671875 -3.765625 C 0.671875 -4.597656 0.820312 -5.304688 1.125 -5.890625 C 1.4375 -6.484375 1.875 -6.929688 2.4375 -7.234375 C 3 -7.535156 3.644531 -7.6875 4.375 -7.6875 C 5.113281 -7.6875 5.765625 -7.535156 6.328125 -7.234375 C 6.890625 -6.929688 7.320312 -6.484375 7.625 -5.890625 C 7.9375 -5.304688 8.09375 -4.597656 8.09375 -3.765625 C 8.09375 -2.929688 7.9375 -2.222656 7.625 -1.640625 C 7.320312 -1.054688 6.890625 -0.613281 6.328125 -0.3125 C 5.765625 -0.0078125 5.113281 0.140625 4.375 0.140625 Z M 4.375 -1.46875 C 5.550781 -1.46875 6.140625 -2.234375 6.140625 -3.765625 C 6.140625 -4.566406 5.988281 -5.148438 5.6875 -5.515625 C 5.382812 -5.890625 4.945312 -6.078125 4.375 -6.078125 C 3.207031 -6.078125 2.625 -5.304688 2.625 -3.765625 C 2.625 -2.234375 3.207031 -1.46875 4.375 -1.46875 Z M 4.375 -1.46875 "/></g></g></g><g fill="#000000" fill-opacity="1"><g transform="translate(123.670293, 26.949733)"><g><path d="M 1.671875 3.203125 C 1.347656 3.203125 1.050781 3.175781 0.78125 3.125 C 0.519531 3.070312 0.3125 3.003906 0.15625 2.921875 L 0.453125 1.390625 L 0.578125 1.359375 C 0.691406 1.410156 0.832031 1.453125 1 1.484375 C 1.164062 1.523438 1.335938 1.546875 1.515625 1.546875 C 1.816406 1.546875 2.066406 1.503906 2.265625 1.421875 C 2.472656 1.347656 2.648438 1.21875 2.796875 1.03125 C 2.941406 0.851562 3.066406 0.597656 3.171875 0.265625 L 0.171875 -7.546875 L 2.140625 -7.546875 L 4.015625 -2.296875 L 4.1875 -2.296875 L 6.015625 -7.546875 L 7.9375 -7.546875 L 4.90625 0.46875 C 4.664062 1.113281 4.398438 1.632812 4.109375 2.03125 C 3.816406 2.425781 3.472656 2.71875 3.078125 2.90625 C 2.691406 3.101562 2.222656 3.203125 1.671875 3.203125 Z M 1.671875 3.203125 "/></g></g></g><g fill="#000000" fill-opacity="1"><g transform="translate(131.759525, 26.949733)"><g><path d="M 7.453125 -3.34375 L 2.609375 -3.34375 C 2.660156 -2.6875 2.84375 -2.207031 3.15625 -1.90625 C 3.476562 -1.613281 3.914062 -1.46875 4.46875 -1.46875 C 4.90625 -1.46875 5.253906 -1.546875 5.515625 -1.703125 C 5.785156 -1.867188 6.003906 -2.113281 6.171875 -2.4375 L 6.3125 -2.4375 L 7.578125 -1.640625 C 7.328125 -1.109375 6.953125 -0.675781 6.453125 -0.34375 C 5.960938 -0.0195312 5.300781 0.140625 4.46875 0.140625 C 3.6875 0.140625 3.007812 -0.00390625 2.4375 -0.296875 C 1.875 -0.597656 1.4375 -1.039062 1.125 -1.625 C 0.820312 -2.207031 0.671875 -2.921875 0.671875 -3.765625 C 0.671875 -4.617188 0.832031 -5.335938 1.15625 -5.921875 C 1.476562 -6.515625 1.914062 -6.957031 2.46875 -7.25 C 3.019531 -7.539062 3.640625 -7.6875 4.328125 -7.6875 C 5.398438 -7.6875 6.21875 -7.398438 6.78125 -6.828125 C 7.351562 -6.265625 7.640625 -5.4375 7.640625 -4.34375 C 7.640625 -3.945312 7.625 -3.640625 7.59375 -3.421875 Z M 5.828125 -4.5625 C 5.804688 -5.132812 5.671875 -5.550781 5.421875 -5.8125 C 5.171875 -6.082031 4.804688 -6.21875 4.328125 -6.21875 C 3.378906 -6.21875 2.816406 -5.664062 2.640625 -4.5625 Z M 5.828125 -4.5625 "/></g></g></g><g fill="#000000" fill-opacity="1"><g transform="translate(139.95124, 26.949733)"><g><path d="M 1.09375 0 L 1.09375 -7.546875 L 2.921875 -7.546875 L 2.921875 -6.421875 L 3.0625 -6.390625 C 3.25 -6.804688 3.488281 -7.113281 3.78125 -7.3125 C 4.082031 -7.507812 4.445312 -7.609375 4.875 -7.609375 C 5.300781 -7.609375 5.625 -7.535156 5.84375 -7.390625 L 5.53125 -5.75 L 5.375 -5.734375 C 5.257812 -5.773438 5.144531 -5.804688 5.03125 -5.828125 C 4.914062 -5.859375 4.773438 -5.875 4.609375 -5.875 C 4.078125 -5.875 3.671875 -5.6875 3.390625 -5.3125 C 3.117188 -4.945312 2.984375 -4.351562 2.984375 -3.53125 L 2.984375 0 Z M 1.09375 0 "/></g></g></g><g fill="#000000" fill-opacity="1"><g transform="translate(37.124997, 58.449731)"><g><path d="M 2.765625 0.109375 C 2.367188 0.109375 2 0.0625 1.65625 -0.03125 C 1.320312 -0.125 1.035156 -0.253906 0.796875 -0.421875 C 0.554688 -0.585938 0.378906 -0.78125 0.265625 -1 L 1.09375 -1.890625 L 1.203125 -1.890625 C 1.398438 -1.617188 1.632812 -1.414062 1.90625 -1.28125 C 2.175781 -1.15625 2.46875 -1.09375 2.78125 -1.09375 C 3.070312 -1.09375 3.289062 -1.144531 3.4375 -1.25 C 3.582031 -1.351562 3.65625 -1.5 3.65625 -1.6875 C 3.65625 -1.84375 3.601562 -1.96875 3.5 -2.0625 C 3.394531 -2.164062 3.222656 -2.25 2.984375 -2.3125 L 2.203125 -2.5 C 1.617188 -2.632812 1.191406 -2.847656 0.921875 -3.140625 C 0.648438 -3.429688 0.515625 -3.796875 0.515625 -4.234375 C 0.515625 -4.609375 0.609375 -4.929688 0.796875 -5.203125 C 0.984375 -5.472656 1.242188 -5.675781 1.578125 -5.8125 C 1.921875 -5.957031 2.320312 -6.03125 2.78125 -6.03125 C 3.3125 -6.03125 3.753906 -5.953125 4.109375 -5.796875 C 4.460938 -5.648438 4.738281 -5.445312 4.9375 -5.1875 L 4.140625 -4.328125 L 4.03125 -4.328125 C 3.863281 -4.515625 3.675781 -4.648438 3.46875 -4.734375 C 3.257812 -4.816406 3.03125 -4.859375 2.78125 -4.859375 C 2.195312 -4.859375 1.90625 -4.675781 1.90625 -4.3125 C 1.90625 -4.164062 1.957031 -4.039062 2.0625 -3.9375 C 2.175781 -3.84375 2.367188 -3.765625 2.640625 -3.703125 L 3.375 -3.546875 C 3.976562 -3.421875 4.414062 -3.210938 4.6875 -2.921875 C 4.96875 -2.640625 5.109375 -2.257812 5.109375 -1.78125 C 5.109375 -1.40625 5.015625 -1.070312 4.828125 -0.78125 C 4.640625 -0.5 4.367188 -0.28125 4.015625 -0.125 C 3.671875 0.03125 3.253906 0.109375 2.765625 0.109375 Z M 2.765625 0.109375 "/></g></g></g><g fill="#000000" fill-opacity="1"><g transform="translate(42.583519, 58.449731)"><g><path d="M 0.859375 0 L 0.859375 -8.296875 L 2.34375 -8.296875 L 2.34375 -5.15625 L 2.453125 -5.125 C 2.648438 -5.414062 2.890625 -5.640625 3.171875 -5.796875 C 3.460938 -5.953125 3.8125 -6.03125 4.21875 -6.03125 C 5.519531 -6.03125 6.171875 -5.289062 6.171875 -3.8125 L 6.171875 0 L 4.6875 0 L 4.6875 -3.625 C 4.6875 -4.03125 4.601562 -4.320312 4.4375 -4.5 C 4.28125 -4.6875 4.035156 -4.78125 3.703125 -4.78125 C 3.285156 -4.78125 2.953125 -4.640625 2.703125 -4.359375 C 2.460938 -4.085938 2.34375 -3.65625 2.34375 -3.0625 L 2.34375 0 Z M 0.859375 0 "/></g></g></g><g fill="#000000" fill-opacity="1"><g transform="translate(49.518043, 58.449731)"><g><path d="M 3.4375 0.109375 C 2.863281 0.109375 2.351562 -0.0078125 1.90625 -0.25 C 1.46875 -0.488281 1.128906 -0.835938 0.890625 -1.296875 C 0.648438 -1.753906 0.53125 -2.304688 0.53125 -2.953125 C 0.53125 -3.609375 0.648438 -4.164062 0.890625 -4.625 C 1.128906 -5.09375 1.46875 -5.441406 1.90625 -5.671875 C 2.351562 -5.910156 2.863281 -6.03125 3.4375 -6.03125 C 4.019531 -6.03125 4.53125 -5.910156 4.96875 -5.671875 C 5.40625 -5.441406 5.742188 -5.09375 5.984375 -4.625 C 6.234375 -4.164062 6.359375 -3.609375 6.359375 -2.953125 C 6.359375 -2.304688 6.234375 -1.753906 5.984375 -1.296875 C 5.742188 -0.835938 5.40625 -0.488281 4.96875 -0.25 C 4.53125 -0.0078125 4.019531 0.109375 3.4375 0.109375 Z M 3.4375 -1.15625 C 4.363281 -1.15625 4.828125 -1.753906 4.828125 -2.953125 C 4.828125 -3.585938 4.707031 -4.050781 4.46875 -4.34375 C 4.226562 -4.632812 3.882812 -4.78125 3.4375 -4.78125 C 2.519531 -4.78125 2.0625 -4.171875 2.0625 -2.953125 C 2.0625 -1.753906 2.519531 -1.15625 3.4375 -1.15625 Z M 3.4375 -1.15625 "/></g></g></g><g fill="#000000" fill-opacity="1"><g transform="translate(56.398894, 58.449731)"><g><path d="M 3.1875 0 L 1.625 0 L 0.21875 -5.921875 L 1.59375 -5.921875 L 2.46875 -1.921875 L 2.578125 -1.921875 L 3.703125 -5.921875 L 5 -5.921875 L 6.15625 -1.921875 L 6.28125 -1.921875 L 7.109375 -5.921875 L 8.453125 -5.921875 L 7.0625 0 L 5.5 0 L 4.375 -4.03125 L 4.265625 -4.03125 Z M 3.1875 0 "/></g></g></g><g fill="#000000" fill-opacity="1"><g transform="translate(65.056315, 58.449731)"><g><path d="M 0.859375 0 L 0.859375 -5.921875 L 2.296875 -5.921875 L 2.296875 -5.046875 L 2.40625 -5.015625 C 2.550781 -5.347656 2.738281 -5.59375 2.96875 -5.75 C 3.207031 -5.90625 3.492188 -5.984375 3.828125 -5.984375 C 4.160156 -5.984375 4.414062 -5.925781 4.59375 -5.8125 L 4.34375 -4.515625 L 4.234375 -4.5 C 4.128906 -4.539062 4.03125 -4.566406 3.9375 -4.578125 C 3.851562 -4.597656 3.75 -4.609375 3.625 -4.609375 C 3.207031 -4.609375 2.890625 -4.460938 2.671875 -4.171875 C 2.453125 -3.878906 2.34375 -3.410156 2.34375 -2.765625 L 2.34375 0 Z M 0.859375 0 "/></g></g></g><g fill="#000000" fill-opacity="1"><g transform="translate(69.699011, 58.449731)"><g><path d="M 3.4375 0.109375 C 2.863281 0.109375 2.351562 -0.0078125 1.90625 -0.25 C 1.46875 -0.488281 1.128906 -0.835938 0.890625 -1.296875 C 0.648438 -1.753906 0.53125 -2.304688 0.53125 -2.953125 C 0.53125 -3.609375 0.648438 -4.164062 0.890625 -4.625 C 1.128906 -5.09375 1.46875 -5.441406 1.90625 -5.671875 C 2.351562 -5.910156 2.863281 -6.03125 3.4375 -6.03125 C 4.019531 -6.03125 4.53125 -5.910156 4.96875 -5.671875 C 5.40625 -5.441406 5.742188 -5.09375 5.984375 -4.625 C 6.234375 -4.164062 6.359375 -3.609375 6.359375 -2.953125 C 6.359375 -2.304688 6.234375 -1.753906 5.984375 -1.296875 C 5.742188 -0.835938 5.40625 -0.488281 4.96875 -0.25 C 4.53125 -0.0078125 4.019531 0.109375 3.4375 0.109375 Z M 3.4375 -1.15625 C 4.363281 -1.15625 4.828125 -1.753906 4.828125 -2.953125 C 4.828125 -3.585938 4.707031 -4.050781 4.46875 -4.34375 C 4.226562 -4.632812 3.882812 -4.78125 3.4375 -4.78125 C 2.519531 -4.78125 2.0625 -4.171875 2.0625 -2.953125 C 2.0625 -1.753906 2.519531 -1.15625 3.4375 -1.15625 Z M 3.4375 -1.15625 "/></g></g></g><g fill="#000000" fill-opacity="1"><g transform="translate(76.579862, 58.449731)"><g><path d="M 3.4375 0.109375 C 2.863281 0.109375 2.351562 -0.0078125 1.90625 -0.25 C 1.46875 -0.488281 1.128906 -0.835938 0.890625 -1.296875 C 0.648438 -1.753906 0.53125 -2.304688 0.53125 -2.953125 C 0.53125 -3.609375 0.648438 -4.164062 0.890625 -4.625 C 1.128906 -5.09375 1.46875 -5.441406 1.90625 -5.671875 C 2.351562 -5.910156 2.863281 -6.03125 3.4375 -6.03125 C 4.019531 -6.03125 4.53125 -5.910156 4.96875 -5.671875 C 5.40625 -5.441406 5.742188 -5.09375 5.984375 -4.625 C 6.234375 -4.164062 6.359375 -3.609375 6.359375 -2.953125 C 6.359375 -2.304688 6.234375 -1.753906 5.984375 -1.296875 C 5.742188 -0.835938 5.40625 -0.488281 4.96875 -0.25 C 4.53125 -0.0078125 4.019531 0.109375 3.4375 0.109375 Z M 3.4375 -1.15625 C 4.363281 -1.15625 4.828125 -1.753906 4.828125 -2.953125 C 4.828125 -3.585938 4.707031 -4.050781 4.46875 -4.34375 C 4.226562 -4.632812 3.882812 -4.78125 3.4375 -4.78125 C 2.519531 -4.78125 2.0625 -4.171875 2.0625 -2.953125 C 2.0625 -1.753906 2.519531 -1.15625 3.4375 -1.15625 Z M 3.4375 -1.15625 "/></g></g></g><g fill="#000000" fill-opacity="1"><g transform="translate(83.460713, 58.449731)"><g><path d="M 0.859375 0 L 0.859375 -5.921875 L 2.28125 -5.921875 L 2.28125 -5.125 L 2.390625 -5.109375 C 2.585938 -5.429688 2.816406 -5.664062 3.078125 -5.8125 C 3.335938 -5.957031 3.671875 -6.03125 4.078125 -6.03125 C 4.523438 -6.03125 4.882812 -5.941406 5.15625 -5.765625 C 5.425781 -5.585938 5.625 -5.332031 5.75 -5 L 5.859375 -5 C 6.046875 -5.351562 6.28125 -5.613281 6.5625 -5.78125 C 6.851562 -5.945312 7.210938 -6.03125 7.640625 -6.03125 C 8.867188 -6.03125 9.484375 -5.347656 9.484375 -3.984375 L 9.484375 0 L 8 0 L 8 -3.796875 C 8 -4.140625 7.929688 -4.390625 7.796875 -4.546875 C 7.660156 -4.703125 7.441406 -4.78125 7.140625 -4.78125 C 6.316406 -4.78125 5.90625 -4.234375 5.90625 -3.140625 L 5.90625 0 L 4.421875 0 L 4.421875 -3.796875 C 4.421875 -4.140625 4.351562 -4.390625 4.21875 -4.546875 C 4.082031 -4.703125 3.863281 -4.78125 3.5625 -4.78125 C 3.175781 -4.78125 2.875 -4.648438 2.65625 -4.390625 C 2.445312 -4.140625 2.34375 -3.734375 2.34375 -3.171875 L 2.34375 0 Z M 0.859375 0 "/></g></g></g><g fill="#000000" fill-opacity="1"><g transform="translate(93.701481, 58.449731)"><g/></g></g><g fill="#000000" fill-opacity="1"><g transform="translate(96.293876, 58.449731)"><g><path d="M 0.859375 0 L 0.859375 -5.921875 L 2.296875 -5.921875 L 2.296875 -5.046875 L 2.40625 -5.015625 C 2.550781 -5.347656 2.738281 -5.59375 2.96875 -5.75 C 3.207031 -5.90625 3.492188 -5.984375 3.828125 -5.984375 C 4.160156 -5.984375 4.414062 -5.925781 4.59375 -5.8125 L 4.34375 -4.515625 L 4.234375 -4.5 C 4.128906 -4.539062 4.03125 -4.566406 3.9375 -4.578125 C 3.851562 -4.597656 3.75 -4.609375 3.625 -4.609375 C 3.207031 -4.609375 2.890625 -4.460938 2.671875 -4.171875 C 2.453125 -3.878906 2.34375 -3.410156 2.34375 -2.765625 L 2.34375 0 Z M 0.859375 0 "/></g></g></g><g fill="#000000" fill-opacity="1"><g transform="translate(100.936572, 58.449731)"><g><path d="M 3.4375 0.109375 C 2.863281 0.109375 2.351562 -0.0078125 1.90625 -0.25 C 1.46875 -0.488281 1.128906 -0.835938 0.890625 -1.296875 C 0.648438 -1.753906 0.53125 -2.304688 0.53125 -2.953125 C 0.53125 -3.609375 0.648438 -4.164062 0.890625 -4.625 C 1.128906 -5.09375 1.46875 -5.441406 1.90625 -5.671875 C 2.351562 -5.910156 2.863281 -6.03125 3.4375 -6.03125 C 4.019531 -6.03125 4.53125 -5.910156 4.96875 -5.671875 C 5.40625 -5.441406 5.742188 -5.09375 5.984375 -4.625 C 6.234375 -4.164062 6.359375 -3.609375 6.359375 -2.953125 C 6.359375 -2.304688 6.234375 -1.753906 5.984375 -1.296875 C 5.742188 -0.835938 5.40625 -0.488281 4.96875 -0.25 C 4.53125 -0.0078125 4.019531 0.109375 3.4375 0.109375 Z M 3.4375 -1.15625 C 4.363281 -1.15625 4.828125 -1.753906 4.828125 -2.953125 C 4.828125 -3.585938 4.707031 -4.050781 4.46875 -4.34375 C 4.226562 -4.632812 3.882812 -4.78125 3.4375 -4.78125 C 2.519531 -4.78125 2.0625 -4.171875 2.0625 -2.953125 C 2.0625 -1.753906 2.519531 -1.15625 3.4375 -1.15625 Z M 3.4375 -1.15625 "/></g></g></g><g fill="#000000" fill-opacity="1"><g transform="translate(107.817423, 58.449731)"><g><path d="M 2.453125 0.109375 C 1.921875 0.109375 1.515625 -0.03125 1.234375 -0.3125 C 0.953125 -0.601562 0.8125 -1.046875 0.8125 -1.640625 L 0.8125 -8.296875 L 2.296875 -8.296875 L 2.296875 -1.6875 C 2.296875 -1.332031 2.445312 -1.15625 2.75 -1.15625 C 2.84375 -1.15625 2.9375 -1.164062 3.03125 -1.1875 L 3.109375 -1.171875 L 3.234375 -0.03125 C 3.148438 0.0078125 3.039062 0.0390625 2.90625 0.0625 C 2.769531 0.09375 2.617188 0.109375 2.453125 0.109375 Z M 2.453125 0.109375 "/></g></g></g><g fill="#000000" fill-opacity="1"><g transform="translate(111.220278, 58.449731)"><g><path d="M 5.859375 -2.625 L 2.046875 -2.625 C 2.085938 -2.113281 2.234375 -1.738281 2.484375 -1.5 C 2.734375 -1.269531 3.078125 -1.15625 3.515625 -1.15625 C 3.847656 -1.15625 4.117188 -1.21875 4.328125 -1.34375 C 4.546875 -1.46875 4.71875 -1.660156 4.84375 -1.921875 L 4.96875 -1.921875 L 5.953125 -1.28125 C 5.753906 -0.863281 5.457031 -0.523438 5.0625 -0.265625 C 4.675781 -0.015625 4.160156 0.109375 3.515625 0.109375 C 2.898438 0.109375 2.367188 -0.00390625 1.921875 -0.234375 C 1.472656 -0.460938 1.128906 -0.804688 0.890625 -1.265625 C 0.648438 -1.734375 0.53125 -2.296875 0.53125 -2.953125 C 0.53125 -3.628906 0.65625 -4.195312 0.90625 -4.65625 C 1.164062 -5.125 1.507812 -5.46875 1.9375 -5.6875 C 2.375 -5.914062 2.863281 -6.03125 3.40625 -6.03125 C 4.238281 -6.03125 4.878906 -5.804688 5.328125 -5.359375 C 5.773438 -4.921875 6 -4.273438 6 -3.421875 C 6 -3.109375 5.988281 -2.863281 5.96875 -2.6875 Z M 4.578125 -3.59375 C 4.566406 -4.039062 4.460938 -4.363281 4.265625 -4.5625 C 4.066406 -4.769531 3.78125 -4.875 3.40625 -4.875 C 2.65625 -4.875 2.210938 -4.445312 2.078125 -3.59375 Z M 4.578125 -3.59375 "/></g></g></g></svg>